HIERARCHY
ROOT Hips
{
	OFFSET -3.958830 18.904000 13.208200
	CHANNELS 6 Xposition Yposition Zposition Zrotation Yrotation Xrotation 
	JOINT LHipJoint
	{
		OFFSET 0.000000 0.000000 0.000000
		CHANNELS 3 Zrotation Yrotation Xrotation
		JOINT LeftUpLeg
		{
			OFFSET 1.800000 -1.400000 0.085000
			CHANNELS 3 Zrotation Yrotation Xrotation
			JOINT LeftLeg
			{
				OFFSET 2.215000 -6.000000 0.000000
				CHANNELS 3 Zrotation Yrotation Xrotation
				JOINT LeftFoot
				{
					OFFSET 2.500000 -6.900000 0.000000
					CHANNELS 3 Zrotation Yrotation Xrotation
					JOINT LeftToeBase
					{
						OFFSET 0.200000 -0.500000 1.950000
						CHANNELS 3 Zrotation Yrotation Xrotation
						End Site
						{
							OFFSET 0.000000 0.000000 0.000000
						}
					}
				}
			}
		}
	}
	JOINT RHipJoint
	{
		OFFSET 0.000000 0.000000 0.000000
		CHANNELS 3 Zrotation Yrotation Xrotation
		JOINT RightUpLeg
		{
			OFFSET -1.800000 -1.400000 0.085000
			CHANNELS 3 Zrotation Yrotation Xrotation
			JOINT RightLeg
			{
				OFFSET -2.215000 -6.000000 0.000000
				CHANNELS 3 Zrotation Yrotation Xrotation
				JOINT RightFoot
				{
					OFFSET -2.500000 -6.900000 0.000000
					CHANNELS 3 Zrotation Yrotation Xrotation
					JOINT RightToeBase
					{
						OFFSET -0.200000 -0.500000 1.950000
						CHANNELS 3 Zrotation Yrotation Xrotation
						End Site
						{
							OFFSET 0.000000 0.000000 0.000000
						}
					}
				}
			}
		}
	}
	JOINT LowerBack
	{
		OFFSET 0.000000 0.000000 0.000000
		CHANNELS 3 Zrotation Yrotation Xrotation
		JOINT Spine
		{
			OFFSET -0.087000 1.940000 -0.288900
			CHANNELS 3 Zrotation Yrotation Xrotation
			JOINT Spine1
			{
				OFFSET 0.000000 1.950000 0.060000
				CHANNELS 3 Zrotation Yrotation Xrotation
				JOINT Neck
				{
					OFFSET 0.000000 0.000000 0.000000
					CHANNELS 3 Zrotation Yrotation Xrotation
					JOINT Neck1
					{
						OFFSET 0.000000 1.600000 0.340000
						CHANNELS 3 Zrotation Yrotation Xrotation
						JOINT Head
						{
							OFFSET 0.000000 1.667000 -0.240000
							CHANNELS 3 Zrotation Yrotation Xrotation
							End Site
							{
								OFFSET 0.000000 0.000000 0.000000
							}
						}
					}
				}
				JOINT LeftShoulder
				{
					OFFSET 0.000000 0.000000 0.000000
					CHANNELS 3 Zrotation Yrotation Xrotation
					JOINT LeftArm
					{
						OFFSET 2.700000 1.550000 -0.730000
						CHANNELS 3 Zrotation Yrotation Xrotation
						JOINT LeftForeArm
						{
							OFFSET 5.450000 0.000000 0.000000
							CHANNELS 3 Zrotation Yrotation Xrotation
							JOINT LeftHand
							{
								OFFSET 3.450000 0.000000 0.000000
								CHANNELS 3 Zrotation Yrotation Xrotation
								JOINT LeftHandIndex1
								{
									OFFSET 0.750000 0.000000 0.000000
									CHANNELS 3 Zrotation Yrotation Xrotation
									End Site
									{
										OFFSET 0.000000 0.000000 0.000000
									}
								}
							}
						}
					}
				}
				JOINT RightShoulder
				{
					OFFSET 0.000000 0.000000 0.000000
					CHANNELS 3 Zrotation Yrotation Xrotation
					JOINT RightArm
					{
						OFFSET -2.700000 1.550000 -0.730000
						CHANNELS 3 Zrotation Yrotation Xrotation
						JOINT RightForeArm
						{
							OFFSET -5.450000 0.000000 0.000000
							CHANNELS 3 Zrotation Yrotation Xrotation
							JOINT RightHand
							{
								OFFSET -3.450000 0.000000 0.000000
								CHANNELS 3 Zrotation Yrotation Xrotation
								JOINT RightHandIndex1
								{
									OFFSET -0.750000 0.000000 0.000000
									CHANNELS 3 Zrotation Yrotation Xrotation
									End Site
									{
										OFFSET 0.000000 0.000000 0.000000
									}
								}
							}
						}
					}
				}
			}
		}
	}
}
MOTION
Frames: 7
Frame Time: 0.016667
-24.902970 17.090330 -11.640070 -13.370739 26.428937 -12.741246 -15.229679 13.600293 2.368825 13.265013 4.284009 -12.620209 -10.969551 9.337566 16.932171 -0.541931 5.075817 2.449241 0.397160 0.341890 0.407550 18.023063 -9.424501 5.295923 -11.771073 3.918248 17.473779 14.779366 -0.688972 -21.219657 -1.572318 -6.119010 2.053502 0.179700 -0.157960 0.124080 -3.762724 -2.925955 -9.114202 31.101748 -1.635992 27.546261 -19.179198 17.234337 -6.669386 -5.486190 1.974074 -23.664389 10.849831 -2.837426 65.592845 5.686540 6.135110 -22.954480 7.706936 -21.441664 2.790659 50.778643 1.029120 -4.191596 7.395075 7.857180 -2.247540 -4.437054 1.293750 0.996990 -0.296530 0.451010 -0.142040 2.408904 30.583855 17.981905 28.771069 30.864440 2.344692 -1.916414 42.011010 -0.112745 1.759190 -0.931132 -0.215680 0.321950 0.164000 -0.282290 
-24.654090 17.317450 -11.648130 -13.917124 32.556513 -14.263240 -15.180606 13.068125 2.349912 11.155544 2.755700 -7.562364 -10.080912 7.037134 10.300657 -0.648354 4.411799 2.794781 0.426370 0.402570 0.409710 18.194561 -9.526865 5.386241 -8.916402 2.226287 22.358005 17.306122 -0.096255 -24.998371 -1.711295 -6.416335 1.979455 0.239240 -0.137690 0.042040 -4.348663 -1.924292 -9.152414 32.621800 -3.596296 24.612241 -18.349854 13.284411 -1.330734 -6.079869 1.750780 -22.032336 12.231711 -4.088348 64.927888 6.704380 5.001250 -25.558520 7.472854 -21.757883 3.917798 50.175666 5.109193 -2.469429 8.857718 4.844660 -1.727194 -4.340985 1.204252 1.017170 -0.321210 0.437510 -0.124400 3.109053 30.018666 16.790340 25.922688 32.080872 3.887757 2.428418 38.845706 1.663260 1.816051 -0.825423 -0.264730 0.435450 0.153850 -0.279580 
-24.478460 17.626620 -11.683710 -10.897396 33.197305 -16.951637 -15.334816 13.493993 2.830938 8.759159 2.666867 -0.825564 -9.041661 6.093826 5.552459 -0.303166 4.148665 2.905693 0.709300 0.836280 0.547450 17.958441 -9.800706 4.768745 -8.489284 -0.558951 24.319876 15.786235 -2.893985 -17.219678 -1.806130 -6.331686 2.030887 0.365830 -0.361530 0.030010 -3.833425 -2.689084 -8.986778 27.119203 -5.447353 30.781653 -16.755688 12.249946 -1.163638 -4.949782 0.065607 -24.396675 9.564709 -3.035577 70.568935 5.300100 6.152100 -26.478980 6.002668 -22.816486 5.910644 50.537317 12.573511 0.005410 10.544232 1.464532 -0.859301 -3.996932 1.404759 0.946420 -0.448120 0.636210 0.017080 2.667400 33.471619 16.715351 21.631436 33.091238 2.884914 4.034123 39.245277 2.475524 1.907457 -0.969706 -0.036510 0.335170 -0.138030 -0.184140 
-24.180360 17.768010 -11.676250 -13.558126 31.422331 -17.322140 -15.000535 12.702860 3.125774 9.094496 1.754722 2.576194 -7.991512 4.730618 -1.827870 -0.271953 4.221021 2.941241 0.530930 0.565610 0.440920 18.356493 -10.994141 3.749768 -5.351385 -3.720090 18.969213 10.745931 -6.611515 -0.087940 -1.484766 -5.809485 2.212448 0.210980 -0.287680 0.073410 -5.015102 -0.213315 -8.673916 36.106211 -4.282519 23.444692 -18.857129 10.479134 10.938786 -3.028295 0.235837 -24.324903 7.798331 -2.807659 69.994899 4.563190 4.066280 -23.405450 6.122759 -26.867878 8.913052 50.988333 20.996602 1.240670 10.114600 2.939143 -1.102283 -4.101825 1.407111 0.933140 -0.394490 0.541170 -0.049500 -0.564963 35.732615 16.121808 16.072654 34.227689 0.106135 1.740786 37.950546 1.938638 1.891066 -0.951683 -0.070300 0.283450 -0.006970 -0.197050 
-23.971120 17.897070 -11.652750 -10.772364 34.042980 -13.909589 -15.036814 12.602978 3.239726 5.514913 1.425692 1.877116 -7.807830 4.288607 -2.869794 -0.225719 3.925748 3.059988 0.507210 0.574220 0.417840 18.343857 -10.993704 3.764065 -4.411878 -3.543446 17.718515 10.538812 -6.516523 -0.411462 -1.471904 -5.611569 2.310473 0.158400 -0.261320 0.097600 -5.094473 -0.077945 -8.763762 31.947862 -0.414568 20.727539 -14.493793 10.068262 11.641516 -2.697990 0.486378 -24.223530 7.151069 -3.569859 73.736842 4.606230 2.933070 -23.882170 4.986562 -27.654884 9.236547 49.604146 15.976180 -1.348039 10.394439 6.805132 -1.244725 -4.207861 1.399250 0.915320 -0.392460 0.588030 -0.030110 0.031930 34.868530 15.344178 16.160777 31.823734 -0.009133 4.683126 40.990004 2.943771 1.912189 -0.972195 -0.017070 0.315050 -0.010440 -0.140950 
-23.801930 18.065200 -11.668010 -7.675728 36.317095 -14.800183 -15.020510 12.096224 3.342727 2.924857 1.637870 6.908382 -7.639799 4.189687 -5.297478 0.004328 4.018785 3.029169 0.640030 0.793020 0.487570 18.479425 -11.042450 3.661690 -3.578365 -3.876915 18.596849 9.438093 -6.501598 -0.397931 -1.570878 -5.628575 2.316652 0.241750 -0.357780 0.037180 -5.459501 0.762047 -8.845457 28.572388 -0.218829 23.266637 -11.883561 7.777120 16.170527 -2.467246 -0.121783 -22.845674 5.134036 -2.521613 72.770749 6.645350 3.110330 -26.939810 5.246304 -29.450941 10.683112 47.711895 20.172956 -1.350403 12.575667 8.186382 -0.873948 -4.116776 1.538996 0.885670 -0.488790 0.676930 0.045020 -0.141622 36.291290 12.951582 11.173086 32.716328 -1.850583 4.283877 38.470353 2.795194 2.081714 -1.059301 0.055890 0.321240 -0.165720 -0.089170 
-23.579020 18.178220 -11.688700 -4.662276 43.014486 -15.317480 -15.264828 12.263627 3.326784 0.923482 1.760731 8.806109 -7.827595 4.775593 -2.552014 -0.172962 4.433735 2.907694 0.542970 0.500670 0.536650 18.286745 -10.475432 3.957677 -2.002006 -3.827647 21.814157 10.054317 -5.632822 -7.397613 -1.589008 -5.831728 2.177738 0.192500 -0.315990 0.006420 -5.129947 -0.131397 -8.921235 24.230674 0.162160 25.763547 -8.433443 5.407399 19.174768 -1.179243 0.804030 -22.309409 5.761933 -4.388278 70.338384 5.202130 -0.011200 -25.198250 5.519740 -31.665157 11.670579 46.396127 21.744402 -1.790623 12.100831 10.008781 -1.163678 -4.299693 1.365618 0.993940 -0.482930 0.542460 -0.062660 -2.884992 38.142312 11.460723 6.314452 27.580638 -6.105231 8.505943 41.771425 3.735706 1.989286 -1.347748 -0.124810 0.360160 -0.030450 -0.226510 
